<svg xmlns="http://www.w3.org/2000/svg" width="677" height="825" viewBox="0 0 677 825">
<g>
<path d="M 354.70 747.37 C345.47,752.67 337.59,756.98 337.20,756.94 C336.57,756.89 321.54,748.28 258.00,711.53 C246.73,705.01 229.18,694.88 219.00,689.02 C193.85,674.54 169.54,660.50 157.50,653.52 C142.90,645.05 85.05,611.68 59.00,596.70 C46.62,589.58 36.17,583.25 35.77,582.63 C35.36,582.01 35.02,503.39 35.02,407.93 L 35.00 234.36 L 80.25 208.28 C105.14,193.94 131.12,178.94 138.00,174.96 C150.54,167.71 169.66,156.68 238.50,117.01 C258.85,105.28 286.75,89.16 300.50,81.19 C314.25,73.22 327.52,65.57 330.00,64.19 C332.48,62.81 335.21,61.24 336.08,60.71 C337.29,59.96 342.53,62.59 358.58,72.04 C384.96,87.57 389.00,89.91 402.50,97.50 C418.69,106.60 457.45,129.00 465.35,133.82 C469.12,136.12 472.37,138.00 472.58,138.00 C472.78,138.00 477.35,140.62 482.73,143.83 C488.10,147.04 498.58,153.07 506.00,157.24 C513.42,161.41 523.33,167.03 528.00,169.75 C532.67,172.46 540.78,177.16 546.00,180.20 C569.14,193.64 602.01,212.64 619.50,222.69 L 638.50 233.61 L 639.01 582.86 L 636.10 584.93 C634.50,586.07 632.97,587.00 632.69,587.00 C632.41,587.00 627.76,589.63 622.34,592.84 C616.93,596.05 596.97,607.59 578.00,618.49 C559.03,629.38 531.35,645.36 516.50,653.99 C501.65,662.62 482.52,673.65 474.00,678.51 C465.48,683.36 451.98,691.14 444.00,695.80 C436.02,700.46 422.08,708.55 413.00,713.77 C403.92,718.99 390.88,726.52 384.00,730.50 C377.12,734.48 363.94,742.07 354.70,747.37 ZM 324.99 657.62 L 337.48 664.86 L 340.49 663.02 C342.15,662.01 353.40,655.45 365.50,648.44 C396.22,630.64 402.71,626.89 426.00,613.48 C437.27,606.99 456.62,595.83 469.00,588.69 C481.38,581.55 506.58,567.03 525.00,556.44 L 558.50 537.17 L 558.73 408.84 L 558.96 280.50 L 511.23 252.90 C484.98,237.72 441.00,212.35 413.50,196.52 C386.00,180.69 357.74,164.38 350.70,160.28 C343.42,156.04 337.26,153.07 336.41,153.40 C335.59,153.71 319.97,162.61 301.71,173.17 C252.38,201.69 239.81,208.95 214.50,223.51 C201.85,230.79 187.68,238.96 183.00,241.67 C178.32,244.38 161.34,254.22 145.25,263.54 L 116.00 280.47 L 116.00 536.79 L 126.25 542.79 C131.89,546.10 148.88,555.87 164.00,564.52 C179.12,573.17 197.80,583.94 205.50,588.45 C213.20,592.97 224.45,599.51 230.50,603.00 C236.55,606.48 244.78,611.28 248.79,613.67 C252.79,616.05 256.27,618.00 256.52,618.00 C256.77,618.00 260.69,620.20 265.24,622.89 C269.78,625.57 282.27,632.86 293.00,639.07 C303.73,645.29 318.12,653.63 324.99,657.62 ZM 369.10 573.89 C351.83,583.85 337.43,591.98 337.10,591.95 C336.77,591.92 335.60,591.30 334.50,590.58 C333.40,589.86 323.27,583.97 312.00,577.48 C287.12,563.17 284.95,561.92 253.50,543.70 C239.75,535.74 217.25,522.74 203.50,514.80 L 178.50 500.38 L 178.50 316.87 L 191.50 309.33 C198.65,305.18 208.77,299.30 214.00,296.25 C219.23,293.21 235.65,283.74 250.50,275.22 C265.35,266.69 290.59,252.13 306.59,242.86 C322.59,233.59 336.51,226.00 337.52,226.00 C339.14,226.00 345.61,229.61 380.50,250.00 C384.90,252.57 398.17,260.22 410.00,266.99 C421.83,273.77 446.00,287.68 463.71,297.91 L 495.93 316.50 L 495.96 408.10 C496.00,494.11 495.89,499.78 494.25,501.21 C493.29,502.05 487.55,505.56 481.50,509.00 C475.45,512.45 454.75,524.39 435.50,535.53 C416.25,546.67 386.37,563.94 369.10,573.89 ZM 333.00 483.85 C334.92,485.03 336.82,485.99 337.21,486.00 C337.61,486.00 342.33,483.45 347.71,480.33 C353.10,477.21 359.98,473.22 363.00,471.47 C366.02,469.72 372.77,465.82 378.00,462.79 C383.23,459.77 391.10,455.21 395.50,452.67 C401.80,449.03 403.61,447.47 404.00,445.34 C404.27,443.86 404.38,426.15 404.23,406.00 L 403.95 369.36 L 392.23 362.58 C349.89,338.09 338.97,332.00 337.48,332.00 C336.55,332.00 328.08,336.45 318.65,341.89 C309.22,347.32 294.52,355.80 286.00,360.72 L 270.50 369.66 L 270.50 447.35 L 279.38 452.68 C284.26,455.60 288.40,458.00 288.58,458.00 C288.91,458.00 326.62,479.95 333.00,483.85 Z" fill="rgb(16,184,130)" data-index="0" style="opacity: 1;"></path>

</g>
</svg>