<svg xmlns="http://www.w3.org/2000/svg" version="1.1" xmlns:xlink="http://www.w3.org/1999/xlink" viewBox="0 0 17.7886394553616 6.103896086113062"><g transform="matrix(0.7540383927861588,0,0,0.7540383927861588,5.925703841611395,2.3127170792087104)"><g transform="matrix(1,0,0,1,0,0)" clip-path="url(#SvgjsClipPath127790)"><g clip-path="url(#SvgjsClipPath1277887356998a-f41c-4a37-a688-c4dc52cc3e57)"><path d=" M -2.180939460282824 -0.5292783223122963 L -3.4883027699958156 0.22554208884385174 L -3.4883027699958156 1.7351829111561479 L -2.180939460282824 2.4900033223122957 L -0.8734639818937149 1.7351829111561479 L -0.8734639818937149 0.22554208884385174 Z M -0.3999999999999999 -0.04785036441421009 L -2.180939460282824 -1.0760632288284202 L -3.961841531006942 -0.04785036441421009 L -3.961841531006942 2.0085753644142095 L -2.180939460282824 3.0367882288284203 L -0.3999999999999999 2.0085753644142095 Z" fill="#0fb981" transform="matrix(1,0,0,1,0,0)" fill-rule="evenodd"></path></g><g clip-path="url(#SvgjsClipPath1277887356998a-f41c-4a37-a688-c4dc52cc3e57)"><path d=" M -2.180939460282824 0.5229012492324412 L -2.5770818347725895 0.7516505693955735 L -2.5770818347725895 1.209074430604426 L -2.1807525124892937 1.4378237507675582 L -1.7844231902059984 1.209074430604426 L -1.7844231902059984 0.7516505693955735 Z M -1.2436206130828298 0.43918602728977185 L -2.180939460282824 -0.10195305586175063 L -3.118258307482818 0.43918602728977185 L -3.118258307482818 1.5215389727102284 L -2.180939460282824 2.062678055861751 L -1.2436206130828298 1.5215389727102284 Z" fill="#0fb981" transform="matrix(1,0,0,1,0,0)" fill-rule="evenodd"></path></g></g><g><path d=" M 0.801 0.016499999999999737 L 0.801 0.25049999999999983 L 0.378 0.25049999999999983 L 0.378 0.4364999999999998 L 0.6900000000000001 0.4364999999999998 L 0.6900000000000001 0.6599999999999998 L 0.378 0.6599999999999998 L 0.378 1.0739999999999998 L 0.084 1.0739999999999998 L 0.084 0.016499999999999737 L 0.801 0.016499999999999737 M 1.159461181640625 1.0147499999999998 Q 1.034961181640625 0.9449999999999998 0.962211181640625 0.8212499999999998 Q 0.889461181640625 0.6974999999999998 0.889461181640625 0.5414999999999999 Q 0.889461181640625 0.38549999999999984 0.962211181640625 0.2617499999999998 Q 1.034961181640625 0.1379999999999998 1.159461181640625 0.06899999999999973 Q 1.283961181640625 -2.220446049250313e-16 1.432461181640625 -2.220446049250313e-16 Q 1.582461181640625 -2.220446049250313e-16 1.706211181640625 0.06899999999999973 Q 1.8299611816406252 0.1379999999999998 1.901961181640625 0.2617499999999998 Q 1.973961181640625 0.38549999999999984 1.973961181640625 0.5414999999999999 Q 1.973961181640625 0.6974999999999998 1.901961181640625 0.8212499999999998 Q 1.8299611816406252 0.9449999999999998 1.7054611816406249 1.0147499999999998 Q 1.580961181640625 1.0844999999999998 1.432461181640625 1.0844999999999998 Q 1.283961181640625 1.0844999999999998 1.159461181640625 1.0147499999999998 M 1.610211181640625 0.7379999999999998 Q 1.675461181640625 0.6644999999999999 1.675461181640625 0.5414999999999999 Q 1.675461181640625 0.41549999999999987 1.610211181640625 0.3427499999999998 Q 1.544961181640625 0.2699999999999998 1.432461181640625 0.2699999999999998 Q 1.318461181640625 0.2699999999999998 1.253961181640625 0.3427499999999998 Q 1.189461181640625 0.41549999999999987 1.189461181640625 0.5414999999999999 Q 1.189461181640625 0.6659999999999998 1.253961181640625 0.7387499999999998 Q 1.318461181640625 0.8114999999999999 1.432461181640625 0.8114999999999999 Q 1.544961181640625 0.8114999999999999 1.610211181640625 0.7379999999999998 M 2.399942138671875 0.8489999999999999 L 2.728442138671875 0.8489999999999999 L 2.728442138671875 1.0739999999999998 L 2.105942138671875 1.0739999999999998 L 2.105942138671875 0.016499999999999737 L 2.399942138671875 0.016499999999999737 L 2.399942138671875 0.8489999999999999 M 3.55273388671875 0.08324999999999982 Q 3.67798388671875 0.1499999999999998 3.74548388671875 0.2699999999999998 Q 3.81298388671875 0.3899999999999998 3.81298388671875 0.5444999999999999 Q 3.81298388671875 0.6974999999999998 3.74473388671875 0.8174999999999999 Q 3.67648388671875 0.9374999999999998 3.55123388671875 1.00575 Q 3.42598388671875 1.0739999999999998 3.26098388671875 1.0739999999999998 L 2.84248388671875 1.0739999999999998 L 2.84248388671875 0.016499999999999737 L 3.26098388671875 0.016499999999999737 Q 3.42748388671875 0.016499999999999737 3.55273388671875 0.08324999999999982 M 3.44098388671875 0.7439999999999998 Q 3.5144838867187502 0.6734999999999998 3.5144838867187502 0.5444999999999999 Q 3.5144838867187502 0.4139999999999998 3.44098388671875 0.3427499999999998 Q 3.36748388671875 0.27149999999999985 3.23848388671875 0.27149999999999985 L 3.13648388671875 0.27149999999999985 L 3.13648388671875 0.8144999999999998 L 3.23848388671875 0.8144999999999998 Q 3.36748388671875 0.8144999999999998 3.44098388671875 0.7439999999999998" fill="#ffffff" fill-rule="nonzero"></path></g><g><path d=" M 0.43875000000000003 1.7360999999999998 Q 0.4665 1.7717249999999998 0.4665 1.8174749999999997 Q 0.4665 1.8834749999999998 0.420375 1.9221 Q 0.37425 1.9607249999999998 0.29175 1.9607249999999998 L 0.0465 1.9607249999999998 L 0.0465 1.4342249999999999 L 0.28350000000000003 1.4342249999999999 Q 0.36375 1.4342249999999999 0.409125 1.4709749999999997 Q 0.4545 1.5077249999999998 0.4545 1.570725 Q 0.4545 1.617225 0.43012500000000004 1.6479749999999997 Q 0.40575 1.6787249999999998 0.36525 1.6907249999999998 Q 0.41100000000000003 1.700475 0.43875000000000003 1.7360999999999998 M 0.17475000000000002 1.6472249999999997 L 0.25875 1.6472249999999997 Q 0.29025 1.6472249999999997 0.307125 1.6333499999999999 Q 0.324 1.6194749999999998 0.324 1.5924749999999999 Q 0.324 1.5654749999999997 0.307125 1.5512249999999999 Q 0.29025 1.5369749999999998 0.25875 1.5369749999999998 L 0.17475000000000002 1.5369749999999998 L 0.17475000000000002 1.6472249999999997 M 0.319125 1.8425999999999998 Q 0.33675 1.827975 0.33675 1.8002249999999997 Q 0.33675 1.7724749999999998 0.318375 1.7567249999999999 Q 0.3 1.7409749999999997 0.26775 1.7409749999999997 L 0.17475000000000002 1.7409749999999997 L 0.17475000000000002 1.857225 L 0.26925 1.857225 Q 0.3015 1.857225 0.319125 1.8425999999999998 M 0.8103724365234375 1.9607249999999998 L 0.7008724365234374 1.7619749999999998 L 0.6701224365234375 1.7619749999999998 L 0.6701224365234375 1.9607249999999998 L 0.5418724365234374 1.9607249999999998 L 0.5418724365234374 1.4342249999999999 L 0.7571224365234375 1.4342249999999999 Q 0.8193724365234374 1.4342249999999999 0.8632474365234375 1.4559749999999998 Q 0.9071224365234374 1.477725 0.9288724365234374 1.5155999999999998 Q 0.9506224365234375 1.5534749999999997 0.9506224365234375 1.5999749999999997 Q 0.9506224365234375 1.652475 0.9209974365234375 1.6937249999999997 Q 0.8913724365234375 1.734975 0.8336224365234375 1.752225 L 0.9551224365234374 1.9607249999999998 L 0.8103724365234375 1.9607249999999998 M 0.6701224365234375 1.6712249999999997 L 0.7496224365234374 1.6712249999999997 Q 0.7848724365234374 1.6712249999999997 0.8024974365234374 1.6539749999999998 Q 0.8201224365234374 1.6367249999999998 0.8201224365234374 1.605225 Q 0.8201224365234374 1.5752249999999999 0.8024974365234374 1.5579749999999999 Q 0.7848724365234374 1.540725 0.7496224365234374 1.540725 L 0.6701224365234375 1.540725 L 0.6701224365234375 1.6712249999999997 M 1.1602305908203123 1.4342249999999999 L 1.1602305908203123 1.9607249999999998 L 1.0319805908203123 1.9607249999999998 L 1.0319805908203123 1.4342249999999999 L 1.1602305908203123 1.4342249999999999 M 1.5970927734374998 1.4672249999999998 Q 1.6593427734375 1.500225 1.6934677734374999 1.55985 Q 1.7275927734374998 1.6194749999999998 1.7275927734374998 1.6974749999999998 Q 1.7275927734374998 1.7747249999999999 1.6934677734374999 1.8347249999999997 Q 1.6593427734375 1.8947249999999998 1.5967177734375 1.927725 Q 1.5340927734374998 1.9607249999999998 1.4515927734374998 1.9607249999999998 L 1.2543427734375 1.9607249999999998 L 1.2543427734375 1.4342249999999999 L 1.4515927734374998 1.4342249999999999 Q 1.5348427734374999 1.4342249999999999 1.5970927734374998 1.4672249999999998 M 1.5565927734375 1.809975 Q 1.5970927734374998 1.770225 1.5970927734374998 1.6974749999999998 Q 1.5970927734374998 1.6247249999999998 1.5565927734375 1.5842249999999998 Q 1.5160927734374998 1.5437249999999998 1.4433427734375 1.5437249999999998 L 1.3825927734374999 1.5437249999999998 L 1.3825927734374999 1.8497249999999998 L 1.4433427734375 1.8497249999999998 Q 1.5160927734374998 1.8497249999999998 1.5565927734375 1.809975 M 2.150210083007812 1.6007249999999997 Q 2.135960083007812 1.5744749999999998 2.1093350830078124 1.5605999999999998 Q 2.0827100830078122 1.546725 2.046710083007812 1.546725 Q 1.9844600830078123 1.546725 1.9469600830078122 1.5876 Q 1.9094600830078123 1.628475 1.9094600830078123 1.6967249999999998 Q 1.9094600830078123 1.769475 1.9488350830078123 1.81035 Q 1.9882100830078122 1.851225 2.057210083007812 1.851225 Q 2.104460083007812 1.851225 2.137085083007812 1.8272249999999999 Q 2.1697100830078124 1.8032249999999999 2.184710083007812 1.758225 L 2.021960083007812 1.758225 L 2.021960083007812 1.663725 L 2.300960083007812 1.663725 L 2.300960083007812 1.7829749999999998 Q 2.2867100830078124 1.8309749999999998 2.252585083007812 1.8722249999999998 Q 2.218460083007812 1.9134749999999998 2.1659600830078123 1.938975 Q 2.113460083007812 1.9644749999999997 2.0474600830078122 1.9644749999999997 Q 1.9694600830078122 1.9644749999999997 1.9083350830078123 1.9303499999999998 Q 1.8472100830078122 1.8962249999999998 1.8130850830078122 1.8354749999999997 Q 1.7789600830078123 1.7747249999999999 1.7789600830078123 1.6967249999999998 Q 1.7789600830078123 1.6187249999999997 1.8130850830078122 1.5575999999999999 Q 1.8472100830078122 1.4964749999999998 1.9079600830078123 1.4623499999999998 Q 1.9687100830078121 1.4282249999999999 2.046710083007812 1.4282249999999999 Q 2.1412100830078122 1.4282249999999999 2.206085083007812 1.4739749999999998 Q 2.2709600830078123 1.5197249999999998 2.291960083007812 1.6007249999999997 L 2.150210083007812 1.6007249999999997 M 2.5016030273437497 1.5369749999999998 L 2.5016030273437497 1.6434749999999998 L 2.67335302734375 1.6434749999999998 L 2.67335302734375 1.7424749999999998 L 2.5016030273437497 1.7424749999999998 L 2.5016030273437497 1.8579749999999997 L 2.69585302734375 1.8579749999999997 L 2.69585302734375 1.9607249999999998 L 2.3733530273437498 1.9607249999999998 L 2.3733530273437498 1.4342249999999999 L 2.69585302734375 1.4342249999999999 L 2.69585302734375 1.5369749999999998 L 2.5016030273437497 1.5369749999999998 M 3.3325960693359375 1.7360999999999998 Q 3.3603460693359373 1.7717249999999998 3.3603460693359373 1.8174749999999997 Q 3.3603460693359373 1.8834749999999998 3.3142210693359373 1.9221 Q 3.2680960693359373 1.9607249999999998 3.1855960693359373 1.9607249999999998 L 2.9403460693359373 1.9607249999999998 L 2.9403460693359373 1.4342249999999999 L 3.1773460693359374 1.4342249999999999 Q 3.2575960693359374 1.4342249999999999 3.3029710693359373 1.4709749999999997 Q 3.3483460693359373 1.5077249999999998 3.3483460693359373 1.570725 Q 3.3483460693359373 1.617225 3.3239710693359372 1.6479749999999997 Q 3.299596069335937 1.6787249999999998 3.2590960693359374 1.6907249999999998 Q 3.3048460693359374 1.700475 3.3325960693359375 1.7360999999999998 M 3.0685960693359373 1.6472249999999997 L 3.1525960693359374 1.6472249999999997 Q 3.1840960693359373 1.6472249999999997 3.2009710693359374 1.6333499999999999 Q 3.217846069335937 1.6194749999999998 3.217846069335937 1.5924749999999999 Q 3.217846069335937 1.5654749999999997 3.2009710693359374 1.5512249999999999 Q 3.1840960693359373 1.5369749999999998 3.1525960693359374 1.5369749999999998 L 3.0685960693359373 1.5369749999999998 L 3.0685960693359373 1.6472249999999997 M 3.2129710693359375 1.8425999999999998 Q 3.2305960693359372 1.827975 3.2305960693359372 1.8002249999999997 Q 3.2305960693359372 1.7724749999999998 3.2122210693359374 1.7567249999999999 Q 3.193846069335937 1.7409749999999997 3.1615960693359373 1.7409749999999997 L 3.0685960693359373 1.7409749999999997 L 3.0685960693359373 1.857225 L 3.1630960693359373 1.857225 Q 3.1953460693359372 1.857225 3.2129710693359375 1.8425999999999998 M 3.563968505859375 1.5369749999999998 L 3.563968505859375 1.6434749999999998 L 3.735718505859375 1.6434749999999998 L 3.735718505859375 1.7424749999999998 L 3.563968505859375 1.7424749999999998 L 3.563968505859375 1.8579749999999997 L 3.758218505859375 1.8579749999999997 L 3.758218505859375 1.9607249999999998 L 3.435718505859375 1.9607249999999998 L 3.435718505859375 1.4342249999999999 L 3.758218505859375 1.4342249999999999 L 3.758218505859375 1.5369749999999998 L 3.563968505859375 1.5369749999999998 M 4.221355224609375 1.4342249999999999 L 4.221355224609375 1.5369749999999998 L 4.081855224609375 1.5369749999999998 L 4.081855224609375 1.9607249999999998 L 3.953605224609375 1.9607249999999998 L 3.953605224609375 1.5369749999999998 L 3.8141052246093747 1.5369749999999998 L 3.8141052246093747 1.4342249999999999 L 4.221355224609375 1.4342249999999999 M 5.011482788085937 1.4342249999999999 L 4.874232788085937 1.9607249999999998 L 4.718982788085937 1.9607249999999998 L 4.634982788085937 1.6142249999999998 L 4.547982788085937 1.9607249999999998 L 4.392732788085937 1.9607249999999998 L 4.259232788085937 1.4342249999999999 L 4.396482788085937 1.4342249999999999 L 4.472232788085937 1.8174749999999997 L 4.565982788085937 1.4342249999999999 L 4.706982788085937 1.4342249999999999 L 4.796982788085937 1.8174749999999997 L 4.873482788085937 1.4342249999999999 L 5.011482788085937 1.4342249999999999 M 5.2053592529296875 1.5369749999999998 L 5.2053592529296875 1.6434749999999998 L 5.377109252929687 1.6434749999999998 L 5.377109252929687 1.7424749999999998 L 5.2053592529296875 1.7424749999999998 L 5.2053592529296875 1.8579749999999997 L 5.399609252929687 1.8579749999999997 L 5.399609252929687 1.9607249999999998 L 5.077109252929687 1.9607249999999998 L 5.077109252929687 1.4342249999999999 L 5.399609252929687 1.4342249999999999 L 5.399609252929687 1.5369749999999998 L 5.2053592529296875 1.5369749999999998 M 5.6122459716796875 1.5369749999999998 L 5.6122459716796875 1.6434749999999998 L 5.783995971679687 1.6434749999999998 L 5.783995971679687 1.7424749999999998 L 5.6122459716796875 1.7424749999999998 L 5.6122459716796875 1.8579749999999997 L 5.806495971679687 1.8579749999999997 L 5.806495971679687 1.9607249999999998 L 5.483995971679687 1.9607249999999998 L 5.483995971679687 1.4342249999999999 L 5.806495971679687 1.4342249999999999 L 5.806495971679687 1.5369749999999998 L 5.6122459716796875 1.5369749999999998 M 6.361882690429687 1.9607249999999998 L 6.233632690429687 1.9607249999999998 L 6.019132690429688 1.6359749999999997 L 6.019132690429688 1.9607249999999998 L 5.890882690429687 1.9607249999999998 L 5.890882690429687 1.4342249999999999 L 6.019132690429688 1.4342249999999999 L 6.233632690429687 1.7604749999999998 L 6.233632690429687 1.4342249999999999 L 6.361882690429687 1.4342249999999999 L 6.361882690429687 1.9607249999999998 M 7.008374633789062 1.7360999999999998 Q 7.036124633789062 1.7717249999999998 7.036124633789062 1.8174749999999997 Q 7.036124633789062 1.8834749999999998 6.989999633789062 1.9221 Q 6.943874633789062 1.9607249999999998 6.861374633789063 1.9607249999999998 L 6.616124633789062 1.9607249999999998 L 6.616124633789062 1.4342249999999999 L 6.853124633789062 1.4342249999999999 Q 6.933374633789063 1.4342249999999999 6.978749633789063 1.4709749999999997 Q 7.024124633789063 1.5077249999999998 7.024124633789063 1.570725 Q 7.024124633789063 1.617225 6.999749633789063 1.6479749999999997 Q 6.9753746337890625 1.6787249999999998 6.934874633789062 1.6907249999999998 Q 6.980624633789063 1.700475 7.008374633789062 1.7360999999999998 M 6.744374633789063 1.6472249999999997 L 6.828374633789062 1.6472249999999997 Q 6.859874633789063 1.6472249999999997 6.876749633789062 1.6333499999999999 Q 6.893624633789062 1.6194749999999998 6.893624633789062 1.5924749999999999 Q 6.893624633789062 1.5654749999999997 6.876749633789062 1.5512249999999999 Q 6.859874633789063 1.5369749999999998 6.828374633789062 1.5369749999999998 L 6.744374633789063 1.5369749999999998 L 6.744374633789063 1.6472249999999997 M 6.888749633789062 1.8425999999999998 Q 6.906374633789063 1.827975 6.906374633789063 1.8002249999999997 Q 6.906374633789063 1.7724749999999998 6.887999633789062 1.7567249999999999 Q 6.869624633789062 1.7409749999999997 6.837374633789063 1.7409749999999997 L 6.744374633789063 1.7409749999999997 L 6.744374633789063 1.857225 L 6.838874633789063 1.857225 Q 6.871124633789062 1.857225 6.888749633789062 1.8425999999999998 M 7.2397470703125 1.4342249999999999 L 7.2397470703125 1.9607249999999998 L 7.1114970703125 1.9607249999999998 L 7.1114970703125 1.4342249999999999 L 7.2397470703125 1.4342249999999999 M 7.446734252929687 1.9314749999999998 Q 7.3848592529296875 1.8969749999999999 7.348484252929687 1.8350999999999997 Q 7.312109252929687 1.7732249999999998 7.312109252929687 1.6959749999999998 Q 7.312109252929687 1.6187249999999997 7.348484252929687 1.5572249999999999 Q 7.3848592529296875 1.4957249999999997 7.446734252929687 1.4612249999999998 Q 7.508609252929688 1.4267249999999998 7.582859252929687 1.4267249999999998 Q 7.657109252929687 1.4267249999999998 7.718984252929688 1.4612249999999998 Q 7.780859252929687 1.4957249999999997 7.816484252929687 1.5572249999999999 Q 7.852109252929687 1.6187249999999997 7.852109252929687 1.6959749999999998 Q 7.852109252929687 1.7732249999999998 7.816109252929687 1.8350999999999997 Q 7.780109252929687 1.8969749999999999 7.718609252929688 1.9314749999999998 Q 7.657109252929687 1.9659749999999998 7.582859252929687 1.9659749999999998 Q 7.508609252929688 1.9659749999999998 7.446734252929687 1.9314749999999998 M 7.683734252929687 1.8069749999999998 Q 7.721609252929687 1.7649749999999997 7.721609252929687 1.6959749999999998 Q 7.721609252929687 1.6262249999999998 7.683734252929687 1.5845999999999998 Q 7.645859252929688 1.5429749999999998 7.582859252929687 1.5429749999999998 Q 7.519109252929687 1.5429749999999998 7.481234252929688 1.5842249999999998 Q 7.443359252929687 1.6254749999999998 7.443359252929687 1.6959749999999998 Q 7.443359252929687 1.7657249999999998 7.481234252929688 1.8073499999999998 Q 7.519109252929687 1.8489749999999998 7.582859252929687 1.8489749999999998 Q 7.645859252929688 1.8489749999999998 7.683734252929687 1.8069749999999998 M 8.412348632812499 1.8677249999999999 L 8.215848632812499 1.8677249999999999 L 8.1843486328125 1.9607249999999998 L 8.0500986328125 1.9607249999999998 L 8.2405986328125 1.4342249999999999 L 8.3890986328125 1.4342249999999999 L 8.579598632812498 1.9607249999999998 L 8.443848632812498 1.9607249999999998 L 8.412348632812499 1.8677249999999999 M 8.3793486328125 1.7687249999999999 L 8.314098632812499 1.575975 L 8.249598632812498 1.7687249999999999 L 8.3793486328125 1.7687249999999999 M 9.109473266601562 1.9607249999999998 L 8.981223266601562 1.9607249999999998 L 8.766723266601561 1.6359749999999997 L 8.766723266601561 1.9607249999999998 L 8.638473266601562 1.9607249999999998 L 8.638473266601562 1.4342249999999999 L 8.766723266601561 1.4342249999999999 L 8.981223266601562 1.7604749999999998 L 8.981223266601562 1.4342249999999999 L 9.109473266601562 1.4342249999999999 L 9.109473266601562 1.9607249999999998 M 9.54635888671875 1.4672249999999998 Q 9.608608886718748 1.500225 9.64273388671875 1.55985 Q 9.67685888671875 1.6194749999999998 9.67685888671875 1.6974749999999998 Q 9.67685888671875 1.7747249999999999 9.64273388671875 1.8347249999999997 Q 9.608608886718748 1.8947249999999998 9.54598388671875 1.927725 Q 9.483358886718749 1.9607249999999998 9.40085888671875 1.9607249999999998 L 9.203608886718749 1.9607249999999998 L 9.203608886718749 1.4342249999999999 L 9.40085888671875 1.4342249999999999 Q 9.484108886718749 1.4342249999999999 9.54635888671875 1.4672249999999998 M 9.50585888671875 1.809975 Q 9.54635888671875 1.770225 9.54635888671875 1.6974749999999998 Q 9.54635888671875 1.6247249999999998 9.50585888671875 1.5842249999999998 Q 9.465358886718748 1.5437249999999998 9.39260888671875 1.5437249999999998 L 9.331858886718749 1.5437249999999998 L 9.331858886718749 1.8497249999999998 L 9.39260888671875 1.8497249999999998 Q 9.465358886718748 1.8497249999999998 9.50585888671875 1.809975 M 10.28883251953125 1.4342249999999999 L 10.28883251953125 1.5369749999999998 L 10.14933251953125 1.5369749999999998 L 10.14933251953125 1.9607249999999998 L 10.02108251953125 1.9607249999999998 L 10.02108251953125 1.5369749999999998 L 9.88158251953125 1.5369749999999998 L 9.88158251953125 1.4342249999999999 L 10.28883251953125 1.4342249999999999 M 10.482710083007811 1.5369749999999998 L 10.482710083007811 1.6434749999999998 L 10.654460083007812 1.6434749999999998 L 10.654460083007812 1.7424749999999998 L 10.482710083007811 1.7424749999999998 L 10.482710083007811 1.8579749999999997 L 10.676960083007812 1.8579749999999997 L 10.676960083007812 1.9607249999999998 L 10.354460083007812 1.9607249999999998 L 10.354460083007812 1.4342249999999999 L 10.676960083007812 1.4342249999999999 L 10.676960083007812 1.5369749999999998 L 10.482710083007811 1.5369749999999998 M 10.773346801757812 1.5575999999999999 Q 10.807096801757812 1.4964749999999998 10.867471801757812 1.4623499999999998 Q 10.927846801757811 1.4282249999999999 11.004346801757812 1.4282249999999999 Q 11.098096801757812 1.4282249999999999 11.164846801757811 1.477725 Q 11.231596801757812 1.5272249999999998 11.254096801757811 1.6127249999999997 L 11.113096801757813 1.6127249999999997 Q 11.097346801757812 1.5797249999999998 11.068471801757811 1.5624749999999998 Q 11.039596801757812 1.5452249999999998 11.002846801757812 1.5452249999999998 Q 10.943596801757812 1.5452249999999998 10.906846801757812 1.5864749999999999 Q 10.870096801757812 1.6277249999999999 10.870096801757812 1.6967249999999998 Q 10.870096801757812 1.7657249999999998 10.906846801757812 1.8069749999999998 Q 10.943596801757812 1.8482249999999998 11.002846801757812 1.8482249999999998 Q 11.039596801757812 1.8482249999999998 11.068471801757811 1.8309749999999998 Q 11.097346801757812 1.8137249999999998 11.113096801757813 1.780725 L 11.254096801757811 1.780725 Q 11.231596801757812 1.8662249999999998 11.164846801757811 1.9153499999999999 Q 11.098096801757812 1.9644749999999997 11.004346801757812 1.9644749999999997 Q 10.927846801757811 1.9644749999999997 10.867471801757812 1.9303499999999998 Q 10.807096801757812 1.8962249999999998 10.773346801757812 1.8354749999999997 Q 10.739596801757811 1.7747249999999999 10.739596801757811 1.6967249999999998 Q 10.739596801757811 1.6187249999999997 10.773346801757812 1.5575999999999999 M 11.789989746093749 1.4342249999999999 L 11.789989746093749 1.9607249999999998 L 11.66173974609375 1.9607249999999998 L 11.66173974609375 1.7439749999999998 L 11.462239746093749 1.7439749999999998 L 11.462239746093749 1.9607249999999998 L 11.33398974609375 1.9607249999999998 L 11.33398974609375 1.4342249999999999 L 11.462239746093749 1.4342249999999999 L 11.462239746093749 1.640475 L 11.66173974609375 1.640475 L 11.66173974609375 1.4342249999999999 L 11.789989746093749 1.4342249999999999" fill="#0fb981" fill-rule="nonzero"></path></g></g><defs><clipPath id="SvgjsClipPath127790"><path d=" M -3.9618415310069417 -1.0760632288284202 h 3.561841531006942 v 4.1128514576568405 h -3.561841531006942 Z"></path></clipPath><clipPath id="SvgjsClipPath1277887356998a-f41c-4a37-a688-c4dc52cc3e57"><path d=" M -3.961841531006942 -1.0760632288284202 L -0.3999999999999999 -1.0760632288284202 L -0.3999999999999999 3.0367882288284203 L -3.961841531006942 3.0367882288284203 Z"></path></clipPath></defs></svg>